<svg width="16" height="16" viewBox="0 0 16 16" fill="none" xmlns="http://www.w3.org/2000/svg">
<g id="star">
<path id="Vector" d="M14.6316 6.11933C14.5456 5.86733 14.3183 5.68933 14.053 5.66866L10.2523 5.36666L8.60765 1.72599C8.50031 1.48666 8.26231 1.33333 8.00031 1.33333C7.73831 1.33333 7.50031 1.48666 7.39298 1.72533L5.74831 5.36666L1.94764 5.66866C1.68698 5.68933 1.46231 5.86066 1.37364 6.10666C1.28498 6.35266 1.34764 6.628 1.53498 6.81066L4.34364 9.54866L3.35031 13.85C3.28898 14.116 3.39631 14.3927 3.62098 14.548C3.73565 14.6267 3.86764 14.6667 4.00031 14.6667C4.12898 14.6667 4.25831 14.6293 4.37031 14.5547L8.00031 12.1347L11.6303 14.5547C11.8623 14.7093 12.167 14.7033 12.3936 14.5387C12.619 14.374 12.7183 14.0853 12.6416 13.8173L11.4223 9.55066L14.4463 6.82933C14.6443 6.65066 14.717 6.37199 14.6316 6.11933Z" fill="#FFBA08"/>
</g>
</svg>
