<svg width="26" height="32" viewBox="0 0 26 32" fill="none" xmlns="http://www.w3.org/2000/svg">
<path d="M21.5694 16.8087C21.5333 12.899 24.8528 10.9968 25.0046 10.9083C23.1246 8.23587 20.2107 7.87073 19.1867 7.84162C16.7394 7.59051 14.3655 9.26942 13.1188 9.26942C11.8473 9.26942 9.9275 7.86588 7.85841 7.90713C5.19585 7.94716 2.70498 9.45017 1.33887 11.7841C-1.48046 16.5431 0.622213 23.5365 3.32335 27.3832C4.67453 29.2671 6.25341 31.3706 8.32 31.2966C10.3418 31.2153 11.097 30.0398 13.5369 30.0398C15.9543 30.0398 16.6635 31.2966 18.7712 31.2493C20.941 31.2153 22.3072 29.3569 23.6111 27.456C25.1725 25.2967 25.7996 23.1701 25.8245 23.061C25.7735 23.044 21.6104 21.4949 21.5694 16.8087Z" fill="white"/>
<path d="M17.588 5.31113C18.6754 3.98523 19.4194 2.18137 19.2129 0.35083C17.639 0.418763 15.6707 1.41228 14.5372 2.70906C13.5344 3.85179 12.6386 5.72479 12.87 7.48619C14.638 7.61477 16.4533 6.61641 17.588 5.31113Z" fill="white"/>
</svg>
