<svg width="384" height="52" viewBox="0 0 384 52" fill="none" xmlns="http://www.w3.org/2000/svg">
<rect width="180" height="52" rx="8" fill="#0B0F19"/>
<path d="M43.5694 25.8087C43.5333 21.899 46.8528 19.9968 47.0046 19.9083C45.1246 17.2359 42.2107 16.8707 41.1867 16.8416C38.7394 16.5905 36.3655 18.2694 35.1188 18.2694C33.8473 18.2694 31.9275 16.8659 29.8584 16.9071C27.1958 16.9472 24.705 18.4502 23.3389 20.7841C20.5195 25.5431 22.6222 32.5365 25.3233 36.3832C26.6745 38.2671 28.2534 40.3706 30.32 40.2966C32.3418 40.2153 33.097 39.0398 35.5369 39.0398C37.9543 39.0398 38.6635 40.2966 40.7712 40.2493C42.941 40.2153 44.3072 38.3569 45.6111 36.456C47.1725 34.2967 47.7996 32.1701 47.8245 32.061C47.7735 32.044 43.6104 30.4949 43.5694 25.8087Z" fill="white"/>
<path d="M39.588 14.3111C40.6754 12.9852 41.4194 11.1814 41.2129 9.35083C39.639 9.41876 37.6707 10.4123 36.5372 11.7091C35.5344 12.8518 34.6386 14.7248 34.87 16.4862C36.638 16.6148 38.4533 15.6164 39.588 14.3111Z" fill="white"/>
<path d="M72.7597 40.0262H69.9341L68.3864 35.2843H63.0065L61.5321 40.0262H58.7812L64.1114 23.8825H67.4035L72.7597 40.0262ZM67.9198 33.2948L66.5201 29.0794C66.372 28.6487 66.0946 27.6346 65.6852 26.0382H65.6355C65.4725 26.7248 65.21 27.7389 64.8492 29.0794L63.4743 33.2948H67.9198Z" fill="white"/>
<path d="M86.4669 34.0628C86.4669 36.0425 85.9182 37.6074 84.8209 38.7562C83.8379 39.7788 82.6174 40.2895 81.1605 40.2895C79.5878 40.2895 78.4581 39.7388 77.77 38.6373H77.7203V44.7694H75.0677V32.2177C75.0677 30.973 75.0341 29.6957 74.9694 28.3855H77.3022L77.4503 30.2306H77.5001C78.3847 28.8404 79.7271 28.1465 81.5287 28.1465C82.9372 28.1465 84.1129 28.6888 85.0535 29.7745C85.9966 30.8614 86.4669 32.2904 86.4669 34.0628ZM83.7645 34.1574C83.7645 33.0244 83.5033 32.0903 82.9782 31.3552C82.4046 30.5885 81.6345 30.2051 80.669 30.2051C80.0146 30.2051 79.4198 30.4186 78.8886 30.8396C78.3561 31.2642 78.0077 31.8185 77.8447 32.5052C77.7626 32.8254 77.7215 33.0874 77.7215 33.2937V35.2346C77.7215 36.0813 77.9878 36.7958 78.5203 37.3793C79.0528 37.9628 79.7446 38.254 80.5956 38.254C81.5947 38.254 82.3723 37.8779 82.9284 37.1282C83.4858 36.3773 83.7645 35.3874 83.7645 34.1574Z" fill="white"/>
<path d="M100.199 34.0628C100.199 36.0425 99.6503 37.6074 98.5517 38.7562C97.5701 39.7788 96.3495 40.2895 94.8926 40.2895C93.3199 40.2895 92.1902 39.7388 91.5034 38.6373H91.4536V44.7694H88.801V32.2177C88.801 30.973 88.7674 29.6957 88.7027 28.3855H91.0356L91.1837 30.2306H91.2334C92.1168 28.8404 93.4593 28.1465 95.2621 28.1465C96.6693 28.1465 97.845 28.6888 98.7881 29.7745C99.7275 30.8614 100.199 32.2904 100.199 34.0628ZM97.4967 34.1574C97.4967 33.0244 97.2341 32.0903 96.7091 31.3552C96.1355 30.5885 95.3679 30.2051 94.4011 30.2051C93.7454 30.2051 93.152 30.4186 92.6194 30.8396C92.0869 31.2642 91.7398 31.8185 91.5768 32.5052C91.4959 32.8254 91.4536 33.0874 91.4536 33.2937V35.2346C91.4536 36.0813 91.7199 36.7958 92.2499 37.3793C92.7824 37.9616 93.4742 38.254 94.3277 38.254C95.3268 38.254 96.1044 37.8779 96.6606 37.1282C97.218 36.3773 97.4967 35.3874 97.4967 34.1574Z" fill="white"/>
<path d="M115.552 35.499C115.552 36.8722 115.063 37.9895 114.082 38.852C113.003 39.7946 111.501 40.2652 109.572 40.2652C107.79 40.2652 106.361 39.9304 105.28 39.2596L105.895 37.1039C107.059 37.7906 108.337 38.1351 109.73 38.1351C110.729 38.1351 111.506 37.9143 112.065 37.4751C112.621 37.036 112.898 36.4465 112.898 35.7113C112.898 35.0563 112.67 34.5043 112.21 34.0567C111.754 33.6091 110.991 33.193 109.926 32.8084C107.027 31.7542 105.579 30.21 105.579 28.1793C105.579 26.8522 106.087 25.764 107.103 24.9173C108.116 24.0694 109.467 23.646 111.157 23.646C112.663 23.646 113.915 23.902 114.914 24.4127L114.251 26.521C113.318 26.0261 112.263 25.7786 111.082 25.7786C110.149 25.7786 109.42 26.003 108.897 26.4494C108.455 26.8485 108.234 27.335 108.234 27.9112C108.234 28.5493 108.487 29.077 108.994 29.4918C109.436 29.8752 110.238 30.2901 111.403 30.7377C112.828 31.2969 113.874 31.9508 114.547 32.7005C115.218 33.4477 115.552 34.383 115.552 35.499Z" fill="white"/>
<path d="M124.323 30.3264H121.399V35.9782C121.399 37.4157 121.914 38.1338 122.947 38.1338C123.421 38.1338 123.814 38.0938 124.125 38.0137L124.198 39.9777C123.676 40.1682 122.988 40.264 122.135 40.264C121.088 40.264 120.269 39.9523 119.678 39.3299C119.09 38.7064 118.793 37.6607 118.793 36.1917V30.324H117.052V28.3831H118.793V26.2517L121.399 25.485V28.3831H124.323V30.3264Z" fill="white"/>
<path d="M137.515 34.11C137.515 35.8993 136.99 37.3684 135.942 38.5172C134.843 39.6999 133.385 40.2895 131.567 40.2895C129.816 40.2895 128.421 39.723 127.381 38.59C126.341 37.4569 125.821 36.0267 125.821 34.3029C125.821 32.4991 126.356 31.0215 127.429 29.8727C128.501 28.7227 129.946 28.1477 131.764 28.1477C133.516 28.1477 134.926 28.7143 135.989 29.8485C137.007 30.9488 137.515 32.3693 137.515 34.11ZM134.763 34.1938C134.763 33.1202 134.527 32.1994 134.051 31.4316C133.495 30.5023 132.7 30.0389 131.67 30.0389C130.603 30.0389 129.793 30.5036 129.237 31.4316C128.761 32.2007 128.525 33.1359 128.525 34.2423C128.525 35.3159 128.761 36.2366 129.237 37.0033C129.811 37.9325 130.612 38.3959 131.646 38.3959C132.659 38.3959 133.454 37.9228 134.027 36.979C134.516 36.1966 134.763 35.2661 134.763 34.1938Z" fill="white"/>
<path d="M146.137 30.6601C145.874 30.6127 145.594 30.5885 145.301 30.5885C144.368 30.5885 143.646 30.9318 143.138 31.6196C142.697 32.2261 142.475 32.9928 142.475 33.9184V40.0263H139.824L139.849 32.0515C139.849 30.7098 139.815 29.4882 139.749 28.3867H142.06L142.157 30.614H142.23C142.51 29.8485 142.952 29.2323 143.556 28.7701C144.147 28.354 144.786 28.1465 145.474 28.1465C145.719 28.1465 145.94 28.1635 146.137 28.1939V30.6601Z" fill="white"/>
<path d="M158 33.6551C158 34.1185 157.969 34.5092 157.903 34.8282H149.945C149.977 35.9782 150.361 36.8577 151.1 37.4642C151.771 38.0065 152.638 38.2782 153.703 38.2782C154.881 38.2782 155.956 38.095 156.923 37.7275L157.338 39.5228C156.209 40.0032 154.875 40.2422 153.336 40.2422C151.484 40.2422 150.031 39.7109 148.974 38.6494C147.919 37.588 147.39 36.1626 147.39 34.3745C147.39 32.6192 147.881 31.1574 148.865 29.9916C149.896 28.747 151.288 28.1247 153.04 28.1247C154.76 28.1247 156.063 28.747 156.948 29.9916C157.648 30.9803 158 32.2031 158 33.6551ZM155.471 32.9843C155.488 32.2176 155.315 31.5553 154.956 30.9961C154.497 30.2767 153.791 29.9176 152.842 29.9176C151.975 29.9176 151.269 30.2682 150.73 30.9718C150.289 31.531 150.026 32.2019 149.945 32.9831H155.471V32.9843Z" fill="white"/>
<path d="M67.0427 13.951C67.0427 15.3788 66.6035 16.4536 65.7264 17.1754C64.9139 17.8413 63.7593 18.1749 62.2638 18.1749C61.5223 18.1749 60.8877 18.1434 60.3564 18.0803V10.279C61.0495 10.1698 61.796 10.114 62.6022 10.114C64.0268 10.114 65.1005 10.4161 65.8247 11.0202C66.6359 11.7031 67.0427 12.6797 67.0427 13.951ZM65.6679 13.9862C65.6679 13.0606 65.4166 12.3509 64.9139 11.856C64.4113 11.3623 63.6772 11.1148 62.7105 11.1148C62.2999 11.1148 61.9503 11.1415 61.6604 11.1973V17.1281C61.8209 17.1523 62.1145 17.1632 62.5412 17.1632C63.5391 17.1632 64.3092 16.8927 64.8517 16.3517C65.3942 15.8106 65.6679 15.0221 65.6679 13.9862Z" fill="white"/>
<path d="M74.3324 15.198C74.3324 16.0775 74.0749 16.7981 73.5598 17.3634C73.0198 17.9445 72.3044 18.2344 71.4111 18.2344C70.5501 18.2344 69.8645 17.9566 69.3532 17.3986C68.8431 16.8418 68.588 16.1394 68.588 15.2927C68.588 14.4071 68.8505 13.6805 69.3781 13.1164C69.9056 12.5523 70.6148 12.2697 71.5081 12.2697C72.3691 12.2697 73.0609 12.5475 73.5847 13.1043C74.0823 13.6453 74.3324 14.344 74.3324 15.198ZM72.98 15.2393C72.98 14.7116 72.863 14.2591 72.6304 13.8818C72.3566 13.4257 71.9672 13.1977 71.4608 13.1977C70.937 13.1977 70.5389 13.4257 70.2652 13.8818C70.0313 14.2591 69.9155 14.7189 69.9155 15.2623C69.9155 15.79 70.0325 16.2425 70.2652 16.6198C70.5476 17.0759 70.9408 17.3039 71.4484 17.3039C71.9461 17.3039 72.3367 17.0723 72.6179 16.6076C72.8593 16.2231 72.98 15.767 72.98 15.2393Z" fill="white"/>
<path d="M84.1067 12.3861L82.2716 18.1046H81.0772L80.317 15.6214C80.1241 15.0015 79.9673 14.3853 79.8454 13.7739H79.8218C79.7085 14.4023 79.5518 15.0173 79.3502 15.6214L78.5427 18.1046H77.3346L75.609 12.3861H76.9489L77.6121 15.1046C77.7726 15.7476 77.9045 16.3602 78.0102 16.94H78.0339C78.1309 16.4621 78.2914 15.8531 78.5179 15.1168L79.3502 12.3873H80.4128L81.2103 15.0585C81.4031 15.71 81.5599 16.3371 81.6806 16.9412H81.7167C81.805 16.3529 81.9381 15.7257 82.1148 15.0585L82.8265 12.3873H84.1067V12.3861Z" fill="white"/>
<path d="M90.8664 18.1046H89.5625V14.8293C89.5625 13.82 89.1693 13.3153 88.3805 13.3153C87.9936 13.3153 87.6813 13.4536 87.4387 13.7314C87.1986 14.0092 87.0766 14.3368 87.0766 14.7116V18.1034H85.7727V14.0201C85.7727 13.5179 85.7566 12.9733 85.7255 12.3837H86.8713L86.9323 13.2777H86.9684C87.1202 12.9999 87.3466 12.7707 87.644 12.5875C87.9973 12.374 88.393 12.266 88.826 12.266C89.3734 12.266 89.8288 12.4383 90.1908 12.784C90.6412 13.2074 90.8664 13.8394 90.8664 14.6788V18.1046Z" fill="white"/>
<path d="M94.4621 18.1046H93.1595V9.76221H94.4621V18.1046Z" fill="white"/>
<path d="M102.139 15.198C102.139 16.0775 101.881 16.7981 101.366 17.3634C100.826 17.9445 100.11 18.2344 99.2174 18.2344C98.3552 18.2344 97.6697 17.9566 97.1595 17.3986C96.6494 16.8418 96.3944 16.1394 96.3944 15.2927C96.3944 14.4071 96.6569 13.6805 97.1844 13.1164C97.712 12.5523 98.4212 12.2697 99.3132 12.2697C100.175 12.2697 100.866 12.5475 101.391 13.1043C101.889 13.6453 102.139 14.344 102.139 15.198ZM100.785 15.2393C100.785 14.7116 100.668 14.2591 100.435 13.8818C100.163 13.4257 99.7723 13.1977 99.2672 13.1977C98.7421 13.1977 98.344 13.4257 98.0715 13.8818C97.8376 14.2591 97.7219 14.7189 97.7219 15.2623C97.7219 15.79 97.8389 16.2425 98.0715 16.6198C98.354 17.0759 98.7471 17.3039 99.2548 17.3039C99.7524 17.3039 100.142 17.0723 100.423 16.6076C100.666 16.2231 100.785 15.767 100.785 15.2393Z" fill="white"/>
<path d="M108.449 18.1046H107.279L107.181 17.4459H107.145C106.745 17.9711 106.174 18.2344 105.432 18.2344C104.878 18.2344 104.431 18.0609 104.093 17.7164C103.787 17.4034 103.634 17.014 103.634 16.5518C103.634 15.8531 103.933 15.3206 104.534 14.9518C105.134 14.583 105.977 14.4023 107.063 14.4107V14.304C107.063 13.5507 106.658 13.1746 105.845 13.1746C105.267 13.1746 104.757 13.3165 104.316 13.598L104.051 12.7634C104.596 12.4346 105.269 12.2697 106.063 12.2697C107.596 12.2697 108.365 13.0582 108.365 14.6352V16.7411C108.365 17.3124 108.393 17.7673 108.449 18.1046ZM107.096 16.1394V15.2575C105.657 15.2332 104.938 15.6178 104.938 16.4099C104.938 16.7083 105.02 16.9315 105.188 17.0807C105.356 17.23 105.57 17.3039 105.825 17.3039C106.111 17.3039 106.379 17.2154 106.623 17.0395C106.868 16.8624 107.018 16.638 107.074 16.3626C107.088 16.3007 107.096 16.2255 107.096 16.1394Z" fill="white"/>
<path d="M115.858 18.1046H114.701L114.64 17.1863H114.604C114.235 17.885 113.605 18.2344 112.721 18.2344C112.014 18.2344 111.425 17.9639 110.959 17.4228C110.492 16.8818 110.26 16.1794 110.26 15.3169C110.26 14.3913 110.512 13.6416 111.02 13.0691C111.511 12.5353 112.113 12.2684 112.83 12.2684C113.618 12.2684 114.169 12.5268 114.482 13.0448H114.507V9.76221H115.812V16.564C115.812 17.1208 115.827 17.6339 115.858 18.1046ZM114.507 15.693V14.7395C114.507 14.5745 114.495 14.4411 114.471 14.3392C114.398 14.0335 114.24 13.7763 114 13.5689C113.757 13.3614 113.465 13.2571 113.127 13.2571C112.641 13.2571 112.26 13.4451 111.98 13.8224C111.703 14.1997 111.562 14.6813 111.562 15.2696C111.562 15.8349 111.695 16.2934 111.963 16.6465C112.245 17.0225 112.626 17.2105 113.103 17.2105C113.531 17.2105 113.873 17.0541 114.133 16.7399C114.384 16.4499 114.507 16.1006 114.507 15.693Z" fill="white"/>
<path d="M127.01 15.198C127.01 16.0775 126.753 16.7981 126.237 17.3634C125.697 17.9445 124.983 18.2344 124.089 18.2344C123.229 18.2344 122.543 17.9566 122.031 17.3986C121.521 16.8418 121.266 16.1394 121.266 15.2927C121.266 14.4071 121.528 13.6805 122.056 13.1164C122.583 12.5523 123.292 12.2697 124.187 12.2697C125.047 12.2697 125.74 12.5475 126.262 13.1043C126.76 13.6453 127.01 14.344 127.01 15.198ZM125.659 15.2393C125.659 14.7116 125.542 14.2591 125.309 13.8818C125.034 13.4257 124.646 13.1977 124.139 13.1977C123.616 13.1977 123.218 13.4257 122.943 13.8818C122.709 14.2591 122.593 14.7189 122.593 15.2623C122.593 15.79 122.71 16.2425 122.943 16.6198C123.225 17.0759 123.618 17.3039 124.126 17.3039C124.624 17.3039 125.016 17.0723 125.297 16.6076C125.537 16.2231 125.659 15.767 125.659 15.2393Z" fill="white"/>
<path d="M134.021 18.1046H132.718V14.8293C132.718 13.82 132.325 13.3153 131.535 13.3153C131.148 13.3153 130.836 13.4536 130.595 13.7314C130.353 14.0092 130.233 14.3368 130.233 14.7116V18.1034H128.927V14.0201C128.927 13.5179 128.912 12.9733 128.881 12.3837H130.026L130.087 13.2777H130.123C130.276 12.9999 130.503 12.7707 130.799 12.5875C131.153 12.374 131.548 12.266 131.982 12.266C132.528 12.266 132.983 12.4383 133.345 12.784C133.797 13.2074 134.021 13.8394 134.021 14.6788V18.1046Z" fill="white"/>
<path d="M142.796 13.3384H141.361V16.1163C141.361 16.8224 141.616 17.1754 142.121 17.1754C142.355 17.1754 142.549 17.156 142.702 17.1159L142.735 18.0803C142.478 18.1749 142.139 18.2223 141.723 18.2223C141.208 18.2223 140.807 18.0694 140.517 17.7637C140.226 17.458 140.082 16.9437 140.082 16.2219V13.3384H139.224V12.3861H140.082V11.338L141.359 10.962V12.3849H142.795V13.3384H142.796Z" fill="white"/>
<path d="M149.699 18.1046H148.394V14.8535C148.394 13.8285 148.001 13.3153 147.213 13.3153C146.609 13.3153 146.195 13.6125 145.969 14.2069C145.93 14.3319 145.908 14.4847 145.908 14.6643V18.1034H144.605V9.76221H145.908V13.2086H145.933C146.344 12.5814 146.932 12.2684 147.695 12.2684C148.235 12.2684 148.681 12.4407 149.036 12.7864C149.478 13.2171 149.699 13.8576 149.699 14.7043V18.1046Z" fill="white"/>
<path d="M156.82 14.9748C156.82 15.2029 156.802 15.3945 156.771 15.551H152.861C152.878 16.1163 153.065 16.547 153.427 16.8454C153.758 17.1123 154.184 17.2457 154.707 17.2457C155.285 17.2457 155.813 17.1559 156.288 16.9752L156.492 17.8583C155.936 18.0937 155.282 18.2113 154.524 18.2113C153.616 18.2113 152.9 17.9505 152.383 17.4289C151.863 16.9073 151.605 16.2073 151.605 15.329C151.605 14.4665 151.845 13.7484 152.329 13.1758C152.834 12.5644 153.518 12.2587 154.38 12.2587C155.223 12.2587 155.864 12.5644 156.297 13.1758C156.647 13.6611 156.82 14.2615 156.82 14.9748ZM155.575 14.6461C155.585 14.2688 155.499 13.9437 155.323 13.6695C155.096 13.3165 154.752 13.1394 154.285 13.1394C153.86 13.1394 153.513 13.3117 153.248 13.6574C153.031 13.9328 152.903 14.2615 152.861 14.6461H155.575Z" fill="white"/>
<rect width="144" height="41.6" rx="8" transform="matrix(1.25 0 0 -1.25 204 52)" fill="#0B0F19"/>
<path d="M270.505 14.9593C270.505 15.9107 270.213 16.6727 269.638 17.2409C268.977 17.9146 268.117 18.2535 267.062 18.2535C266.054 18.2535 265.193 17.9089 264.487 17.2295C263.78 16.5402 263.427 15.6942 263.427 14.6816C263.427 13.669 263.78 12.823 264.487 12.1393C265.193 11.4543 266.054 11.1096 267.062 11.1096C267.564 11.1096 268.042 11.2107 268.499 11.3987C268.954 11.5882 269.324 11.8445 269.593 12.1607L268.983 12.7617C268.515 12.2219 267.877 11.9556 267.062 11.9556C266.327 11.9556 265.689 12.2063 265.148 12.7119C264.613 13.2189 264.344 13.8755 264.344 14.6816C264.344 15.4877 264.613 16.15 265.148 16.657C265.689 17.1569 266.327 17.4132 267.062 17.4132C267.842 17.4132 268.499 17.1569 269.017 16.6513C269.358 16.3166 269.552 15.8551 269.603 15.2655H267.062V14.4423H270.452C270.493 14.6203 270.505 14.7927 270.505 14.9593Z" fill="white"/>
<path d="M275.883 12.1051H272.698V14.27H275.569V15.0932H272.698V17.258H275.883V18.0969H271.797V11.2663H275.883V12.1051Z" fill="white"/>
<path d="M279.679 18.0969H278.777V12.1051H276.824V11.2663H281.633V12.1051H279.679V18.0969Z" fill="white"/>
<path d="M285.114 18.0969V11.2663H286.014V18.0969H285.114Z" fill="white"/>
<path d="M290.003 18.0969H289.109V12.1051H287.149V11.2663H291.964V12.1051H290.003V18.0969Z" fill="white"/>
<path d="M301.07 17.2181C300.38 17.9089 299.525 18.2535 298.505 18.2535C297.48 18.2535 296.625 17.9089 295.935 17.2181C295.246 16.5288 294.903 15.6828 294.903 14.6816C294.903 13.6804 295.246 12.8344 295.935 12.145C296.625 11.4543 297.48 11.1096 298.505 11.1096C299.519 11.1096 300.374 11.4543 301.064 12.1507C301.758 12.8458 302.101 13.686 302.101 14.6816C302.101 15.6828 301.758 16.5288 301.07 17.2181ZM296.601 16.6456C297.121 17.1569 297.752 17.4132 298.505 17.4132C299.252 17.4132 299.889 17.1569 300.403 16.6456C300.921 16.1343 301.183 15.4777 301.183 14.6816C301.183 13.8854 300.921 13.2289 300.403 12.7176C299.889 12.2063 299.252 11.9499 298.505 11.9499C297.752 11.9499 297.121 12.2063 296.601 12.7176C296.084 13.2289 295.821 13.8854 295.821 14.6816C295.821 15.4777 296.084 16.1343 296.601 16.6456Z" fill="white"/>
<path d="M303.366 18.0969V11.2663H304.46L307.861 16.5786H307.901L307.861 15.2655V11.2663H308.761V18.0969H307.822L304.26 12.5224H304.22L304.26 13.8413V18.0969H303.366Z" fill="white"/>
<path d="M294.682 28.0726C291.941 28.0726 289.702 30.1092 289.702 32.9192C289.702 35.7065 291.941 37.7645 294.682 37.7645C297.429 37.7645 299.668 35.7065 299.668 32.9192C299.668 30.1092 297.429 28.0726 294.682 28.0726ZM294.682 35.856C293.178 35.856 291.884 34.644 291.884 32.9192C291.884 31.1717 293.178 29.9811 294.682 29.9811C296.186 29.9811 297.486 31.1717 297.486 32.9192C297.486 34.644 296.186 35.856 294.682 35.856ZM283.816 28.0726C281.069 28.0726 278.836 30.1092 278.836 32.9192C278.836 35.7065 281.069 37.7645 283.816 37.7645C286.561 37.7645 288.796 35.7065 288.796 32.9192C288.796 30.1092 286.561 28.0726 283.816 28.0726ZM283.816 35.856C282.311 35.856 281.012 34.644 281.012 32.9192C281.012 31.1717 282.311 29.9811 283.816 29.9811C285.32 29.9811 286.614 31.1717 286.614 32.9192C286.614 34.644 285.32 35.856 283.816 35.856ZM270.886 29.5581V31.6175H275.923C275.775 32.7683 275.382 33.6143 274.778 34.2039C274.042 34.916 272.897 35.7065 270.886 35.7065C267.786 35.7065 265.359 33.2639 265.359 30.2374C265.359 27.2109 267.786 24.7684 270.886 24.7684C272.562 24.7684 273.781 25.4079 274.681 26.2368L276.168 24.7855C274.909 23.6119 273.234 22.7104 270.886 22.7104C266.635 22.7104 263.062 26.0872 263.062 30.2374C263.062 34.3876 266.635 37.7645 270.886 37.7645C273.183 37.7645 274.909 37.0296 276.266 35.6509C277.656 34.2936 278.089 32.3852 278.089 30.8441C278.089 30.3656 278.048 29.9255 277.975 29.5581H270.886ZM323.759 31.1546C323.349 30.0708 322.084 28.0726 319.508 28.0726C316.956 28.0726 314.83 30.0366 314.83 32.9192C314.83 35.6338 316.934 37.7645 319.753 37.7645C322.033 37.7645 323.349 36.4072 323.89 35.6167L322.198 34.5158C321.634 35.3219 320.865 35.856 319.753 35.856C318.649 35.856 317.857 35.3618 317.349 34.3876L323.988 31.7058L323.759 31.1546ZM316.991 32.7683C316.934 30.8997 318.477 29.9426 319.583 29.9426C320.449 29.9426 321.184 30.3656 321.43 30.9709L316.991 32.7683ZM311.595 37.4696H313.777V23.2274H311.595V37.4696ZM308.021 29.1522H307.948C307.458 28.5853 306.523 28.0726 305.338 28.0726C302.852 28.0726 300.58 30.2032 300.58 32.9349C300.58 35.6509 302.852 37.7645 305.338 37.7645C306.523 37.7645 307.458 37.2475 307.948 36.6635H308.021V37.3586C308.021 39.2115 307.007 40.207 305.372 40.207C304.038 40.207 303.211 39.267 302.87 38.4766L300.972 39.2499C301.519 40.5346 302.968 42.1155 305.372 42.1155C307.93 42.1155 310.089 40.6457 310.089 37.0694V28.3674H308.021V29.1522ZM305.525 35.856C304.021 35.856 302.762 34.6269 302.762 32.9349C302.762 31.2273 304.021 29.9811 305.525 29.9811C307.007 29.9811 308.175 31.2273 308.175 32.9349C308.175 34.6269 307.007 35.856 305.525 35.856ZM333.976 23.2274H328.757V37.4696H330.933V32.0733H333.976C336.393 32.0733 338.764 30.3656 338.764 27.6496C338.764 24.935 336.387 23.2274 333.976 23.2274ZM334.033 30.0922H330.933V25.2085H334.033C335.658 25.2085 336.586 26.5259 336.586 27.6496C336.586 28.752 335.658 30.0922 334.033 30.0922ZM347.487 28.0455C345.914 28.0455 344.279 28.7235 343.607 30.226L345.538 31.0165C345.954 30.226 346.718 29.9697 347.526 29.9697C348.655 29.9697 349.801 30.6319 349.818 31.8012V31.9508C349.424 31.7286 348.581 31.3996 347.544 31.3996C345.464 31.3996 343.344 32.5176 343.344 34.6041C343.344 36.5126 345.048 37.7417 346.963 37.7417C348.428 37.7417 349.236 37.0965 349.744 36.3459H349.818V37.4469H351.92V31.9835C351.92 29.4584 349.989 28.0455 347.487 28.0455ZM347.224 35.8503C346.513 35.8503 345.521 35.5056 345.521 34.644C345.521 33.5416 346.758 33.1186 347.828 33.1186C348.787 33.1186 349.236 33.3251 349.818 33.5972C349.647 34.916 348.485 35.8503 347.224 35.8503ZM359.578 28.3574L357.077 34.5315H357.002L354.416 28.3574H352.069L355.955 36.9854L353.738 41.7865H356.012L362 28.3574H359.578ZM339.96 37.4696H342.142V23.2274H339.96V37.4696Z" fill="white"/>
<path d="M226.541 11.8776C226.198 12.2279 226 12.7734 226 13.4798V38.6773C226 39.3837 226.198 39.9292 226.541 40.2795L226.626 40.3564L241.088 26.2424V25.9091L226.626 11.795L226.541 11.8776Z" fill="url(#paint0_linear_4632_11272)"/>
<path d="M245.902 30.9492L241.087 26.2421V25.9089L245.908 21.2018L246.016 21.263L251.725 24.4348C253.355 25.3349 253.355 26.8161 251.725 27.7219L246.016 30.888L245.902 30.9492Z" fill="url(#paint1_linear_4632_11272)"/>
<path d="M246.016 30.888L241.087 26.0756L226.54 40.2794C227.081 40.8348 227.964 40.9018 228.967 40.3463L246.016 30.888Z" fill="url(#paint2_linear_4632_11272)"/>
<path d="M246.016 21.2632L228.967 11.8049C227.964 11.2552 227.081 11.3221 226.54 11.8776L241.087 26.0757L246.016 21.2632Z" fill="url(#paint3_linear_4632_11272)"/>
<defs>
<linearGradient id="paint0_linear_4632_11272" x1="239.804" y1="38.9397" x2="220.688" y2="19.3604" gradientUnits="userSpaceOnUse">
<stop stop-color="#00A0FF"/>
<stop offset="0.0066" stop-color="#00A1FF"/>
<stop offset="0.2601" stop-color="#00BEFF"/>
<stop offset="0.5122" stop-color="#00D2FF"/>
<stop offset="0.7604" stop-color="#00DFFF"/>
<stop offset="1" stop-color="#00E3FF"/>
</linearGradient>
<linearGradient id="paint1_linear_4632_11272" x1="253.847" y1="26.0739" x2="225.61" y2="26.0739" gradientUnits="userSpaceOnUse">
<stop stop-color="#FFE000"/>
<stop offset="0.4087" stop-color="#FFBD00"/>
<stop offset="0.7754" stop-color="#FFA500"/>
<stop offset="1" stop-color="#FF9C00"/>
</linearGradient>
<linearGradient id="paint2_linear_4632_11272" x1="243.335" y1="23.4594" x2="217.412" y2="-3.09167" gradientUnits="userSpaceOnUse">
<stop stop-color="#FF3A44"/>
<stop offset="1" stop-color="#C31162"/>
</linearGradient>
<linearGradient id="paint3_linear_4632_11272" x1="222.878" y1="48.6626" x2="234.454" y2="36.8064" gradientUnits="userSpaceOnUse">
<stop stop-color="#32A071"/>
<stop offset="0.0685" stop-color="#2DA771"/>
<stop offset="0.4762" stop-color="#15CF74"/>
<stop offset="0.8009" stop-color="#06E775"/>
<stop offset="1" stop-color="#00F076"/>
</linearGradient>
</defs>
</svg>
