<svg width="28" height="29" viewBox="0 0 28 29" fill="none" xmlns="http://www.w3.org/2000/svg">
<g clip-path="url(#clip0_20005128_12778)">
<g clip-path="url(#clip1_20005128_12778)">
<g clip-path="url(#clip2_20005128_12778)">
<mask id="mask0_20005128_12778" style="mask-type:luminance" maskUnits="userSpaceOnUse" x="0" y="0" width="28" height="29">
<path d="M0 0.679932H28V28.6799H0V0.679932Z" fill="white"/>
</mask>
<g mask="url(#mask0_20005128_12778)">
<path d="M22.148 14.7349C20.339 14.7349 18.867 16.2069 18.867 18.0159C18.867 19.8249 20.339 21.2969 22.148 21.2969H26.796L26.851 21.2939L26.905 21.2969C27.509 21.2969 27.999 20.8069 27.999 20.2029V11.6169C27.9989 10.925 27.8344 10.243 27.5193 9.62701C27.2041 9.01106 26.7471 8.47875 26.186 8.07389L22.466 1.96989C22.314 1.72089 22.069 1.54289 21.786 1.47489C21.503 1.40689 21.204 1.45589 20.956 1.60889L18.212 3.31089L16.974 1.21689C16.825 0.964887 16.582 0.783887 16.298 0.711887C16.014 0.639887 15.714 0.685887 15.464 0.837887L4.928 7.24289H3.281C2.687 7.24289 2.202 6.76689 2.188 6.17689C2.203 5.58589 2.687 5.11089 3.281 5.11089H5.304C5.908 5.11089 6.398 4.62089 6.398 4.01689C6.398 3.41289 5.908 2.92289 5.304 2.92289H3.281C1.734 2.92189 0.433 3.99889 0.0890002 5.44289C0.030204 5.57932 -8.26529e-05 5.72633 1.69407e-07 5.87489V6.14789V6.20289V24.3049C0.00132352 25.4648 0.462685 26.5768 1.28287 27.397C2.10305 28.2172 3.21508 28.6786 4.375 28.6799H23.625C24.5433 28.6809 25.4386 28.3925 26.1837 27.8558C26.9289 27.319 27.486 26.5612 27.776 25.6899C27.967 25.1169 27.658 24.4969 27.085 24.3059C26.512 24.1149 25.893 24.4239 25.701 24.9969C25.403 25.8909 24.569 26.4919 23.625 26.4919H4.375C3.79522 26.4911 3.2394 26.2604 2.82943 25.8505C2.41946 25.4405 2.18879 24.8847 2.188 24.3049V9.24189C2.53 9.36289 2.898 9.42989 3.282 9.42989H23.626C24.206 9.43042 24.762 9.66097 25.1722 10.071C25.5824 10.481 25.8132 11.0369 25.814 11.6169V14.7339H22.15L22.148 14.7349ZM25.812 19.1099H22.148C21.545 19.1099 21.054 18.6189 21.054 18.0159C21.054 17.4129 21.545 16.9219 22.148 16.9219H25.812V19.1099ZM9.14 7.24289L15.654 3.28389L16.819 5.25489C16.8413 5.30965 16.8681 5.3625 16.899 5.41289C16.9228 5.45042 16.9489 5.48648 16.977 5.52089L17.994 7.24189H9.14V7.24289ZM20.535 7.24289L19.325 5.19589L21.172 4.05089L23.118 7.24389H20.534L20.535 7.24289Z" fill="url(#paint0_linear_20005128_12778)"/>
</g>
</g>
</g>
</g>
<defs>
<linearGradient id="paint0_linear_20005128_12778" x1="1.69407e-07" y1="14.7469" x2="28" y2="14.7469" gradientUnits="userSpaceOnUse">
<stop stop-color="#6366F1"/>
<stop offset="0.5" stop-color="#8B5CF6"/>
<stop offset="1" stop-color="#D946EF"/>
</linearGradient>
<clipPath id="clip0_20005128_12778">
<rect width="28" height="28" fill="white" transform="translate(0 0.679932)"/>
</clipPath>
<clipPath id="clip1_20005128_12778">
<rect width="28" height="28" fill="white" transform="translate(0 0.679932)"/>
</clipPath>
<clipPath id="clip2_20005128_12778">
<rect width="28" height="28" fill="white" transform="translate(0 0.679932)"/>
</clipPath>
</defs>
</svg>
