<svg width="28" height="29" viewBox="0 0 28 29" fill="none" xmlns="http://www.w3.org/2000/svg">
<g clip-path="url(#clip0_20005128_12789)">
<g clip-path="url(#clip1_20005128_12789)">
<g clip-path="url(#clip2_20005128_12789)">
<mask id="mask0_20005128_12789" style="mask-type:luminance" maskUnits="userSpaceOnUse" x="0" y="0" width="28" height="29">
<path d="M0 0.47998H28V28.48H0V0.47998Z" fill="white"/>
</mask>
<g mask="url(#mask0_20005128_12789)">
<path d="M13.945 22.136C8.914 22.136 6.572 17.914 6.475 17.735C6.188 17.204 6.385 16.54 6.917 16.252C7.449 15.964 8.112 16.163 8.399 16.694C8.401 16.698 8.873 17.541 9.811 18.361C11.016 19.414 12.407 19.949 13.945 19.949C17.687 19.949 19.473 16.727 19.491 16.694C19.779 16.163 20.442 15.965 20.974 16.252C21.506 16.539 21.703 17.203 21.416 17.734C21.319 17.914 18.978 22.135 13.946 22.135L13.945 22.136ZM21.244 26.462C21.761 26.149 21.926 25.477 21.613 24.96C21.3 24.443 20.627 24.278 20.111 24.591C18.2677 25.706 16.1542 26.2946 14 26.293C10.8686 26.2882 7.86674 25.0421 5.65256 22.8277C3.43838 20.6133 2.1925 17.6114 2.188 14.48C2.19276 11.3487 3.43876 8.34704 5.65291 6.13289C7.86706 3.91875 10.8687 2.67274 14 2.66798C17.1314 2.67248 20.1334 3.91836 22.3477 6.13254C24.5621 8.34672 25.8082 11.3485 25.813 14.48C25.813 16.809 25.12 19.076 23.81 21.036C23.474 21.538 23.609 22.217 24.111 22.553C24.613 22.889 25.292 22.754 25.628 22.252C27.18 19.931 28 17.243 28 14.48C28 10.741 26.544 7.22498 23.9 4.57998C21.256 1.93498 17.74 0.47998 14 0.47998C10.26 0.47998 6.745 1.93598 4.1 4.57998C1.455 7.22398 0 10.741 0 14.48C0 18.219 1.456 21.735 4.1 24.38C6.744 27.025 10.261 28.48 14 28.48C16.56 28.48 19.065 27.782 21.244 26.462ZM21.602 11.855C21.6004 11.1304 21.3119 10.4359 20.7995 9.9235C20.2871 9.41112 19.5926 9.12257 18.868 9.12098C18.1434 9.12257 17.4489 9.41112 16.9365 9.9235C16.4241 10.4359 16.1356 11.1304 16.134 11.855C16.134 12.459 16.624 12.949 17.228 12.949C17.832 12.949 18.322 12.459 18.322 11.855C18.3228 11.7101 18.3807 11.5715 18.4831 11.4691C18.5855 11.3667 18.7242 11.3088 18.869 11.308C19.0138 11.3088 19.1525 11.3667 19.2549 11.4691C19.3573 11.5715 19.4152 11.7101 19.416 11.855C19.416 12.459 19.906 12.949 20.51 12.949C21.114 12.949 21.604 12.459 21.604 11.855H21.602ZM11.922 11.855C11.9204 11.1304 11.6319 10.4359 11.1195 9.9235C10.6071 9.41112 9.91261 9.12257 9.188 9.12098C8.46338 9.12257 7.7689 9.41112 7.25652 9.9235C6.74414 10.4359 6.45559 11.1304 6.454 11.855C6.454 12.459 6.944 12.949 7.548 12.949C8.152 12.949 8.642 12.459 8.642 11.855C8.64279 11.7101 8.70067 11.5715 8.80308 11.4691C8.9055 11.3667 9.04417 11.3088 9.189 11.308C9.33383 11.3088 9.4725 11.3667 9.57492 11.4691C9.67733 11.5715 9.73521 11.7101 9.736 11.855C9.736 12.459 10.226 12.949 10.83 12.949C11.434 12.949 11.924 12.459 11.924 11.855H11.922Z" fill="url(#paint0_linear_20005128_12789)"/>
</g>
</g>
</g>
</g>
<defs>
<linearGradient id="paint0_linear_20005128_12789" x1="0" y1="14.547" x2="28" y2="14.547" gradientUnits="userSpaceOnUse">
<stop stop-color="#6366F1"/>
<stop offset="0.5" stop-color="#8B5CF6"/>
<stop offset="1" stop-color="#D946EF"/>
</linearGradient>
<clipPath id="clip0_20005128_12789">
<rect width="28" height="28" fill="white" transform="translate(0 0.47998)"/>
</clipPath>
<clipPath id="clip1_20005128_12789">
<rect width="28" height="28" fill="white" transform="translate(0 0.47998)"/>
</clipPath>
<clipPath id="clip2_20005128_12789">
<rect width="28" height="28" fill="white" transform="translate(0 0.47998)"/>
</clipPath>
</defs>
</svg>
