<svg width="78" height="78" viewBox="0 0 78 78" fill="none" xmlns="http://www.w3.org/2000/svg">
<g clip-path="url(#clip0_20005128_12933)">
<mask id="mask0_20005128_12933" style="mask-type:luminance" maskUnits="userSpaceOnUse" x="0" y="0" width="78" height="78">
<path d="M0 0H78V78H0V0Z" fill="white"/>
</mask>
<g mask="url(#mask0_20005128_12933)">
<path d="M47.176 65C47.176 72.18 41.355 78 34.176 78C26.997 78 21.176 72.18 21.176 65C21.176 57.82 26.996 52 34.176 52C41.356 52 47.176 57.821 47.176 65Z" fill="#FFBA08"/>
<path opacity="0.3" d="M47.176 65C47.176 72.18 41.355 78 34.176 78C26.997 78 21.176 72.18 21.176 65C21.176 57.82 26.996 52 34.176 52C41.356 52 47.176 57.821 47.176 65Z" fill="#EF4444"/>
<path d="M56.952 38.744C45.934 37.17 37.426 27.697 37.426 16.25C37.4258 13.1047 38.0822 9.99408 39.353 7.117C37.689 6.727 35.96 6.5 34.176 6.5C21.631 6.5 11.426 16.705 11.426 29.25V38.311C11.4273 41.4894 10.7333 44.6296 9.39261 47.5113C8.05191 50.3931 6.09702 52.9467 3.66503 54.993C2.40103 56.072 1.67603 57.648 1.67603 59.312C1.67603 62.449 4.22703 65 7.36303 65H60.988C64.125 65 66.676 62.449 66.676 59.312C66.676 57.648 65.951 56.072 64.654 54.964C62.2899 52.9641 60.3798 50.4827 59.0515 47.6856C57.7231 44.8885 57.008 41.84 56.952 38.744Z" fill="url(#paint0_linear_20005128_12933)"/>
<path d="M76.426 16.25C76.426 25.225 69.15 32.5 60.176 32.5C51.202 32.5 43.926 25.225 43.926 16.25C43.926 7.275 51.201 0 60.176 0C69.151 0 76.426 7.276 76.426 16.25Z" fill="url(#paint1_linear_20005128_12933)"/>
</g>
</g>
<defs>
<linearGradient id="paint0_linear_20005128_12933" x1="-2.49997" y1="54.001" x2="59.5" y2="19.001" gradientUnits="userSpaceOnUse">
<stop stop-color="#FFBA08"/>
<stop offset="1" stop-color="#FFDB7E"/>
</linearGradient>
<linearGradient id="paint1_linear_20005128_12933" x1="42.5" y1="37.5" x2="60" y2="-1.5" gradientUnits="userSpaceOnUse">
<stop stop-color="#7A1CD0"/>
<stop offset="1" stop-color="#6366F1"/>
</linearGradient>
<clipPath id="clip0_20005128_12933">
<rect width="78" height="78" fill="white"/>
</clipPath>
</defs>
</svg>
