<svg width="28" height="29" viewBox="0 0 28 29" fill="none" xmlns="http://www.w3.org/2000/svg">
<g clip-path="url(#clip0_20005128_12738)">
<g clip-path="url(#clip1_20005128_12738)">
<path d="M22.531 16.693C23.135 16.693 23.625 17.183 23.625 17.787V19.1C23.625 19.704 23.135 20.194 22.531 20.194H20.015C19.411 20.194 18.921 19.704 18.921 19.1V17.788C18.921 17.184 19.411 16.694 20.015 16.694L22.531 16.693ZM25.812 14.724V11.443H2.188V20.186C2.18853 20.7662 2.41922 21.3224 2.82944 21.7326C3.23965 22.1428 3.79587 22.3735 4.376 22.374H23.626C24.2061 22.3735 24.7624 22.1428 25.1726 21.7326C25.5828 21.3224 25.8135 20.7662 25.814 20.186C25.814 19.582 26.304 19.092 26.908 19.092C27.512 19.092 28 19.582 28 20.186C27.9987 21.3459 27.5373 22.458 26.7171 23.2782C25.8969 24.0983 24.7849 24.5597 23.625 24.561H4.375C3.21508 24.5597 2.10305 24.0983 1.28287 23.2782C0.462685 22.458 0.00132335 21.3459 0 20.186L0 8.37402C0.00132335 7.21411 0.462685 6.10208 1.28287 5.28189C2.10305 4.46171 3.21508 4.00035 4.375 3.99902H23.625C24.7849 4.00035 25.8969 4.46171 26.7171 5.28189C27.5373 6.10208 27.9987 7.21411 28 8.37402V14.724C28 15.328 27.51 15.818 26.906 15.818C26.302 15.818 25.812 15.328 25.812 14.724ZM25.812 9.25502V8.37302C25.8112 7.79324 25.5805 7.23743 25.1706 6.82746C24.7606 6.41749 24.2048 6.18682 23.625 6.18602H4.375C3.79504 6.18682 3.23908 6.41763 2.82908 6.82781C2.41908 7.238 2.18853 7.79407 2.188 8.37402V9.25602H25.813L25.812 9.25502ZM5.469 13.63C4.865 13.63 4.375 14.12 4.375 14.724C4.375 15.328 4.865 15.818 5.469 15.818H14.492C15.096 15.818 15.586 15.328 15.586 14.724C15.586 14.12 15.096 13.63 14.492 13.63H5.469Z" fill="url(#paint0_linear_20005128_12738)"/>
</g>
</g>
<defs>
<linearGradient id="paint0_linear_20005128_12738" x1="0" y1="14.329" x2="28" y2="14.329" gradientUnits="userSpaceOnUse">
<stop stop-color="#6366F1"/>
<stop offset="0.5" stop-color="#8B5CF6"/>
<stop offset="1" stop-color="#D946EF"/>
</linearGradient>
<clipPath id="clip0_20005128_12738">
<rect width="28" height="28" fill="white" transform="translate(0 0.280029)"/>
</clipPath>
<clipPath id="clip1_20005128_12738">
<rect width="28" height="28" fill="white" transform="translate(0 0.280029)"/>
</clipPath>
</defs>
</svg>
