<svg width="28" height="29" viewBox="0 0 28 29" fill="none" xmlns="http://www.w3.org/2000/svg">
<g clip-path="url(#clip0_20005128_12745)">
<g clip-path="url(#clip1_20005128_12745)">
<g clip-path="url(#clip2_20005128_12745)">
<mask id="mask0_20005128_12745" style="mask-type:luminance" maskUnits="userSpaceOnUse" x="0" y="0" width="28" height="29">
<path d="M0 0.480042H28V28.48H0V0.480042Z" fill="white"/>
</mask>
<g mask="url(#mask0_20005128_12745)">
<path d="M13.945 28.48C13.777 28.48 13.61 28.442 13.456 28.365C13.328 28.301 10.287 26.759 7.10399 23.3C5.25169 21.292 3.71607 19.0136 2.54999 16.543C1.10599 13.475 0.247989 10.116 0.00198947 6.56004C-0.0180105 6.27004 0.0779895 5.98404 0.268989 5.76504C0.459989 5.54604 0.73099 5.41204 1.02099 5.39304C3.02399 5.26104 4.59299 3.58404 4.59299 1.57404C4.59399 0.970042 5.08299 0.480042 5.68699 0.480042H22.312C22.916 0.480042 23.406 0.970042 23.406 1.57404C23.406 3.58304 24.974 5.26004 26.976 5.39304C27.271 5.41204 27.545 5.55004 27.736 5.77504C27.927 6.00004 28.02 6.29304 27.992 6.58704C27.618 10.536 26.528 14.229 24.751 17.564C24.467 18.097 23.805 18.299 23.272 18.015C22.739 17.731 22.537 17.069 22.821 16.535C24.309 13.741 25.276 10.669 25.702 7.39004C23.462 6.80004 21.742 4.94704 21.319 2.66604H6.68099C6.25599 4.95904 4.52299 6.81704 2.26999 7.39904C2.84499 12.917 4.98999 17.741 8.65299 21.752C10.846 24.153 12.996 25.569 13.939 26.129C14.971 25.501 17.466 23.815 19.895 20.89C20.281 20.425 20.97 20.362 21.435 20.748C21.9 21.134 21.964 21.824 21.577 22.288C18.12 26.45 14.591 28.284 14.442 28.36C14.2879 28.439 14.1182 28.4802 13.945 28.48ZM14.791 22.561C15.155 22.079 15.06 21.393 14.578 21.029C13.632 20.314 12.737 19.504 11.918 18.621C9.53499 16.052 7.91899 13.035 7.10699 9.64204C7.54499 9.30404 7.95599 8.93104 8.33599 8.52604C8.96599 7.85504 9.50399 7.10704 9.93499 6.30004C10.22 5.76704 10.018 5.10504 9.48599 4.82004C8.95399 4.53504 8.29099 4.73704 8.00599 5.26904C7.66372 5.90803 7.23873 6.49912 6.74199 7.02704C6.30299 7.49404 5.81099 7.90904 5.27999 8.26004C4.90699 8.50604 4.72199 8.95404 4.81099 9.39204C5.64399 13.464 7.49499 17.069 10.314 20.108C11.2158 21.0811 12.2012 21.9732 13.259 22.774C13.3734 22.8611 13.5039 22.9247 13.6429 22.9612C13.782 22.9976 13.9269 23.0062 14.0693 22.9864C14.2117 22.9666 14.3488 22.9188 14.4726 22.8458C14.5965 22.7728 14.7047 22.676 14.791 22.561Z" fill="url(#paint0_linear_20005128_12745)"/>
</g>
</g>
</g>
</g>
<defs>
<linearGradient id="paint0_linear_20005128_12745" x1="-0.00101053" y1="14.547" x2="27.998" y2="14.547" gradientUnits="userSpaceOnUse">
<stop stop-color="#6366F1"/>
<stop offset="0.5" stop-color="#8B5CF6"/>
<stop offset="1" stop-color="#D946EF"/>
</linearGradient>
<clipPath id="clip0_20005128_12745">
<rect width="28" height="28" fill="white" transform="translate(0 0.480042)"/>
</clipPath>
<clipPath id="clip1_20005128_12745">
<rect width="28" height="28" fill="white" transform="translate(0 0.480042)"/>
</clipPath>
<clipPath id="clip2_20005128_12745">
<rect width="28" height="28" fill="white" transform="translate(0 0.480042)"/>
</clipPath>
</defs>
</svg>
