<svg width="28" height="29" viewBox="0 0 28 29" fill="none" xmlns="http://www.w3.org/2000/svg">
<g clip-path="url(#clip0_20005128_12756)">
<g clip-path="url(#clip1_20005128_12756)">
<g clip-path="url(#clip2_20005128_12756)">
<mask id="mask0_20005128_12756" style="mask-type:luminance" maskUnits="userSpaceOnUse" x="0" y="0" width="28" height="29">
<path d="M0 0.279907H28V28.2799H0V0.279907Z" fill="white"/>
</mask>
<g mask="url(#mask0_20005128_12756)">
<path d="M25.813 22.2629V3.01391C25.8122 2.86908 25.7543 2.7304 25.6519 2.62799C25.5495 2.52558 25.4108 2.46769 25.266 2.46691H22.86C22.7152 2.46769 22.5765 2.52558 22.4741 2.62799C22.3717 2.7304 22.3138 2.86908 22.313 3.01391V26.0899H26.906C27.51 26.0899 28 26.5799 28 27.1829C28 27.7859 27.51 28.2769 26.906 28.2769H1.096C0.492 28.2769 0.002 27.7869 0.002 27.1829V19.3629C0.00358502 18.6383 0.29214 17.9438 0.804521 17.4314C1.3169 16.919 2.01139 16.6305 2.736 16.6289H5.142C5.86661 16.6305 6.5611 16.919 7.07348 17.4314C7.58586 17.9438 7.87441 18.6383 7.876 19.3629V22.2609C7.876 22.8649 7.386 23.3549 6.782 23.3549C6.178 23.3549 5.688 22.8649 5.688 22.2609V19.3629C5.68721 19.2181 5.62933 19.0794 5.52692 18.977C5.4245 18.8746 5.28583 18.8167 5.141 18.8159H2.736C2.59117 18.8167 2.4525 18.8746 2.35008 18.977C2.24767 19.0794 2.18979 19.2181 2.189 19.3629V26.0889H10.064V11.7639C10.0656 11.0393 10.3541 10.3448 10.8665 9.83243C11.3789 9.32005 12.0734 9.03149 12.798 9.02991H15.204C15.9286 9.03149 16.6231 9.32005 17.1355 9.83243C17.6479 10.3448 17.9364 11.0393 17.938 11.7639V22.2629C17.938 22.8669 17.448 23.3569 16.844 23.3569C16.24 23.3569 15.75 22.8669 15.75 22.2629V11.7639C15.7492 11.6191 15.6913 11.4804 15.5889 11.378C15.4865 11.2756 15.3478 11.2177 15.203 11.2169H12.797C12.6522 11.2177 12.5135 11.2756 12.4111 11.378C12.3087 11.4804 12.2508 11.6191 12.25 11.7639V26.0909H20.124V3.01391C20.1256 2.28895 20.4144 1.59416 20.9272 1.08172C21.44 0.569285 22.135 0.280964 22.86 0.279907L25.266 0.279907C25.9906 0.281492 26.6851 0.570047 27.1975 1.08243C27.7099 1.59481 27.9984 2.28929 28 3.01391V22.2629C28 22.8669 27.51 23.3569 26.906 23.3569C26.302 23.3569 25.813 22.8669 25.813 22.2629ZM4.357 10.0679H2.728C2.459 10.0679 2.187 9.89891 2.187 9.57591C2.187 8.97191 1.697 8.48191 1.093 8.48191C0.489 8.48191 0 8.97191 0 9.57591C0 11.0449 1.145 12.2019 2.626 12.2529V12.8569C2.626 13.4609 3.116 13.9509 3.72 13.9509C4.324 13.9509 4.814 13.4609 4.814 12.8569V12.2239C6.319 12.0139 7.44 10.7769 7.44 9.23491V9.13891C7.44 7.41991 6.057 6.02191 4.358 6.02191H3.355C2.857 6.02191 2.466 5.64191 2.466 5.15591V5.07691C2.466 4.58691 2.848 4.21791 3.355 4.21791H4.303C4.582 4.21791 4.87 4.40391 4.87 4.71591C4.87 5.31991 5.36 5.80991 5.964 5.80991C6.568 5.80991 7.058 5.31991 7.058 4.71591C7.058 3.40491 6.09 2.31191 4.815 2.07691V1.37391C4.813 0.769907 4.324 0.279907 3.72 0.279907C3.116 0.279907 2.626 0.769907 2.626 1.37391V2.11491C2.085 2.24291 1.589 2.51291 1.187 2.90591C0.897724 3.18813 0.668243 3.52572 0.512243 3.89854C0.356243 4.27135 0.276919 4.67177 0.279 5.07591V5.15491C0.279 5.98091 0.601 6.75191 1.185 7.32691C1.763 7.89491 2.534 8.20791 3.355 8.20791H4.357C4.842 8.20791 5.252 8.63391 5.252 9.13691V9.23291C5.252 9.70891 4.867 10.0669 4.357 10.0669V10.0679Z" fill="url(#paint0_linear_20005128_12756)"/>
</g>
</g>
</g>
</g>
<defs>
<linearGradient id="paint0_linear_20005128_12756" x1="0" y1="14.3459" x2="28" y2="14.3459" gradientUnits="userSpaceOnUse">
<stop stop-color="#6366F1"/>
<stop offset="0.5" stop-color="#8B5CF6"/>
<stop offset="1" stop-color="#D946EF"/>
</linearGradient>
<clipPath id="clip0_20005128_12756">
<rect width="28" height="28" fill="white" transform="translate(0 0.279907)"/>
</clipPath>
<clipPath id="clip1_20005128_12756">
<rect width="28" height="28" fill="white" transform="translate(0 0.279907)"/>
</clipPath>
<clipPath id="clip2_20005128_12756">
<rect width="28" height="28" fill="white" transform="translate(0 0.279907)"/>
</clipPath>
</defs>
</svg>
