<svg width="28" height="29" viewBox="0 0 28 29" fill="none" xmlns="http://www.w3.org/2000/svg">
<g clip-path="url(#clip0_20005128_12767)">
<g clip-path="url(#clip1_20005128_12767)">
<g clip-path="url(#clip2_20005128_12767)">
<mask id="mask0_20005128_12767" style="mask-type:luminance" maskUnits="userSpaceOnUse" x="0" y="0" width="28" height="29">
<path d="M0 0.47998H28V28.48H0V0.47998Z" fill="white"/>
</mask>
<g mask="url(#mask0_20005128_12767)">
<path d="M26.322 23.024C27.422 21.527 27.999 19.787 27.999 17.954C27.999 15.019 26.477 12.294 23.909 10.593C23.672 7.97798 22.451 5.55298 20.409 3.68398C18.152 1.61798 15.157 0.47998 11.976 0.47998C8.79499 0.47998 5.79999 1.61798 3.54199 3.68398C1.25799 5.77498 -1.42089e-05 8.56298 -1.42089e-05 11.534C-1.42089e-05 13.819 0.736986 15.986 2.13699 17.84L0.0789858 22.929C-0.0880142 23.342 0.0119858 23.814 0.331986 24.124C0.539986 24.326 0.814986 24.432 1.09399 24.432C1.24299 24.432 1.39299 24.402 1.53499 24.339L7.40299 21.752C8.13999 22.034 8.89899 22.244 9.67499 22.384C10.47 23.692 11.605 24.8 12.984 25.606C14.524 26.506 16.301 26.987 18.13 27.001L18.211 27.005C19.4561 27.0082 20.6916 26.7881 21.859 26.355L26.465 28.386C26.6039 28.4474 26.7541 28.479 26.906 28.479C27.185 28.479 27.459 28.372 27.668 28.171C27.988 27.861 28.088 27.388 27.921 26.976L26.322 23.024ZM24.056 23.254L24.882 25.298L22.321 24.169C22.044 24.047 21.729 24.045 21.451 24.164C20.447 24.592 19.372 24.812 18.255 24.818L18.211 24.816C16.056 24.816 14.019 23.974 12.597 22.573C14.401 22.487 16.169 22.026 17.745 21.225C18.284 20.951 18.498 20.293 18.225 19.754C17.952 19.215 17.293 19.001 16.754 19.274C15.303 20.011 13.651 20.401 11.977 20.401C10.522 20.401 9.12099 20.118 7.81399 19.56C7.53599 19.441 7.21999 19.443 6.94399 19.565L3.11799 21.251L4.40599 18.065C4.55899 17.687 4.48899 17.256 4.22399 16.946C2.89199 15.383 2.18799 13.512 2.18799 11.534C2.18799 6.64498 6.57899 2.66698 11.977 2.66698C17.375 2.66698 21.766 6.64498 21.766 11.534C21.766 13.113 21.302 14.663 20.423 16.017C20.094 16.524 20.239 17.201 20.745 17.53C21.251 17.859 21.929 17.714 22.258 17.208C23.0297 16.0231 23.5538 14.6945 23.799 13.302C25.08 14.557 25.812 16.21 25.812 17.954C25.812 19.481 25.268 20.927 24.237 22.135C23.973 22.445 23.904 22.877 24.056 23.254ZM13.015 17.16C13.015 17.764 12.525 18.254 11.921 18.254C11.317 18.254 10.827 17.764 10.827 17.16C10.827 16.556 11.317 16.066 11.921 16.066C12.525 16.066 13.015 16.556 13.015 17.16ZM16.077 8.96498C16.078 8.97998 16.078 8.99498 16.078 9.01098C16.0787 9.81527 15.8428 10.602 15.3997 11.2732C14.9566 11.9445 14.3258 12.4705 13.586 12.786C13.273 12.92 13.07 13.235 13.07 13.59V13.661C13.07 14.265 12.58 14.755 11.976 14.755C11.372 14.755 10.882 14.265 10.882 13.661V13.591C10.8792 12.9923 11.0527 12.4061 11.3808 11.9054C11.7088 11.4046 12.177 11.0115 12.727 10.775C13.424 10.477 13.878 9.79998 13.89 9.04398V9.01198C13.89 7.95698 13.032 7.09798 11.976 7.09798C10.92 7.09798 10.062 7.95598 10.062 9.01198C10.062 9.61598 9.57199 10.106 8.96799 10.106C8.36399 10.106 7.87399 9.61598 7.87399 9.01198C7.87399 6.75098 9.71399 4.91098 11.975 4.91098C14.221 4.91098 16.051 6.72598 16.076 8.96598L16.077 8.96498Z" fill="url(#paint0_linear_20005128_12767)"/>
</g>
</g>
</g>
</g>
<defs>
<linearGradient id="paint0_linear_20005128_12767" x1="-1.42058e-05" y1="14.547" x2="28" y2="14.547" gradientUnits="userSpaceOnUse">
<stop stop-color="#6366F1"/>
<stop offset="0.5" stop-color="#8B5CF6"/>
<stop offset="1" stop-color="#D946EF"/>
</linearGradient>
<clipPath id="clip0_20005128_12767">
<rect width="28" height="28" fill="white" transform="translate(0 0.47998)"/>
</clipPath>
<clipPath id="clip1_20005128_12767">
<rect width="28" height="28" fill="white" transform="translate(0 0.47998)"/>
</clipPath>
<clipPath id="clip2_20005128_12767">
<rect width="28" height="28" fill="white" transform="translate(0 0.47998)"/>
</clipPath>
</defs>
</svg>
