<svg width="20" height="20" viewBox="0 0 20 20" fill="none" xmlns="http://www.w3.org/2000/svg">
<g id="icons / bx-phone-call">
<path id="Vector" d="M13.805 18.3326C13.8092 18.3326 13.8242 18.3326 13.8284 18.3326C14.2683 18.3326 14.6842 18.1592 14.9992 17.8442L17.2592 15.5842C17.585 15.2584 17.585 14.7317 17.2592 14.4059L13.9258 11.0726C13.6 10.7467 13.0733 10.7467 12.7475 11.0726L11.4192 12.4009C10.8034 12.2176 9.65418 11.8009 8.92585 11.0726C8.19752 10.3442 7.78085 9.19508 7.59752 8.57925L8.92585 7.25092C9.25168 6.92508 9.25168 6.39842 8.92585 6.07258L5.59252 2.73925C5.28002 2.42675 4.72668 2.42675 4.41418 2.73925L2.15502 4.99925C1.83835 5.31591 1.66002 5.75092 1.66668 6.19508C1.68585 7.38175 2.00002 11.5034 5.24835 14.7517C8.49668 18.0001 12.6184 18.3134 13.805 18.3326ZM5.00418 4.50675L7.15918 6.66175L6.08168 7.73925C5.88252 7.93758 5.79752 8.22425 5.85585 8.49925C5.87585 8.59508 6.36502 10.8676 7.74835 12.2509C9.13168 13.6342 11.4042 14.1234 11.5 14.1434C11.7775 14.2017 12.0617 14.1167 12.26 13.9176L13.3375 12.8401L15.4925 14.9951L13.8208 16.6659C12.7808 16.6484 9.22252 16.3692 6.42668 13.5726C3.62168 10.7676 3.35002 7.19675 3.33335 6.17758L5.00418 4.50675ZM16.6659 9.16591H18.3325C18.3325 4.89091 15.105 1.66675 10.8242 1.66675V3.33341C14.2092 3.33341 16.6659 5.78591 16.6659 9.16591Z" fill="#6366F1"/>
<path id="Vector_2" d="M10.8325 6.66667C12.585 6.66667 13.3325 7.41417 13.3325 9.16667H14.9992C14.9992 6.47917 13.52 5 10.8325 5V6.66667Z" fill="#6366F1"/>
</g>
</svg>
